<?xml version="1.0" encoding="utf-8"?>
<!-- Generator: Adobe Illustrator 24.3.0, SVG Export Plug-In . SVG Version: 6.00 Build 0)  -->
<svg version="1.1" id="Layer_1" focusable="false" xmlns="http://www.w3.org/2000/svg" xmlns:xlink="http://www.w3.org/1999/xlink"
	 x="0px" y="0px" viewBox="0 0 384 512" style="enable-background:new 0 0 384 512;" xml:space="preserve">
<style type="text/css">
	.st0{fill:#FFFFFF;}
</style>
<path class="st0" d="M358.4,3.2L320,48L265.6,3.2c-5.7-4.3-13.5-4.3-19.2,0L192,48L137.6,3.2c-5.7-4.3-13.5-4.3-19.2,0L64,48
	L25.6,3.2C15-4.7,0,2.8,0,16v480c0,13.2,15,20.7,25.6,12.8L64,464l54.4,44.8c5.7,4.3,13.5,4.3,19.2,0L192,464l54.4,44.8
	c5.7,4.3,13.5,4.3,19.2,0L320,464l38.4,44.8c10.5,7.9,25.6,0.4,25.6-12.8V16C384,2.8,369-4.7,358.4,3.2z M320,360c0,4.4-3.6,8-8,8
	H72c-4.4,0-8-3.6-8-8v-16c0-4.4,3.6-8,8-8h240c4.4,0,8,3.6,8,8V360z M320,264c0,4.4-3.6,8-8,8H72c-4.4,0-8-3.6-8-8v-16
	c0-4.4,3.6-8,8-8h240c4.4,0,8,3.6,8,8V264z M320,168c0,4.4-3.6,8-8,8H72c-4.4,0-8-3.6-8-8v-16c0-4.4,3.6-8,8-8h240c4.4,0,8,3.6,8,8
	V168z"/>
</svg>
